<svg xmlns="http://www.w3.org/2000/svg" xmlns:xlink="http://www.w3.org/1999/xlink" width="500" zoomAndPan="magnify" viewBox="0 0 375 374.999991" height="500" preserveAspectRatio="xMidYMid meet" version="1.0"><defs><g/></defs><g fill="rgb(11.759949%, 11.759949%, 11.759949%)" fill-opacity="1"><g transform="translate(28.445311, 192.599944)"><g><path d="M 44.605469 -36.097656 C 45.609375 -38.308594 46.679688 -40.652344 47.753906 -42.929688 C 47.820312 -42.996094 47.820312 -43.132812 47.820312 -43.199219 C 47.820312 -43.535156 47.550781 -43.800781 47.21875 -43.800781 C 46.679688 -43.800781 45.542969 -42.796875 45.074219 -42.394531 C 40.585938 -38.578125 36.769531 -33.957031 32.953125 -29.46875 C 29.335938 -25.25 25.785156 -21.03125 22.167969 -16.8125 C 17.882812 -16.273438 13.527344 -15.941406 9.242188 -15.539062 C 8.707031 -15.605469 8.171875 -15.671875 7.636719 -15.671875 C 6.765625 -15.671875 5.292969 -15.671875 4.957031 -15.003906 C 5.023438 -14.464844 5.425781 -14.601562 5.359375 -14.601562 C 6.765625 -14.601562 8.238281 -14.667969 9.710938 -14.800781 C 12.457031 -14.332031 15.003906 -12.660156 17.28125 -11.050781 C 11.585938 -4.554688 5.691406 2.007812 -0.9375 7.367188 C -3.484375 9.445312 -6.09375 11.386719 -8.976562 12.726562 C -9.109375 12.792969 -9.109375 12.859375 -9.109375 12.992188 C -9.109375 13.195312 -8.976562 13.328125 -8.839844 13.328125 C -8.839844 13.328125 -8.773438 13.328125 -8.707031 13.261719 C -0.738281 9.914062 6.363281 2.546875 10.917969 -2.007812 C 13.460938 -4.6875 16.007812 -7.433594 18.417969 -10.179688 C 23.84375 -5.691406 28.597656 0.402344 32.414062 6.160156 L 33.285156 7.433594 L 33.285156 7.5 C 33.355469 7.636719 33.488281 7.703125 33.621094 7.703125 C 33.824219 7.703125 33.957031 7.5 33.957031 7.367188 C 33.957031 7.097656 33.554688 6.296875 33.421875 5.625 C 33.355469 4.957031 33.285156 4.285156 33.285156 3.550781 C 33.488281 -3.75 36.234375 -11.519531 38.375 -18.082031 C 39.851562 -18.351562 45.273438 -19.019531 45.273438 -19.757812 C 45.273438 -19.957031 45.074219 -20.160156 44.875 -20.160156 C 44.875 -20.160156 44.804688 -20.160156 44.804688 -20.160156 C 42.730469 -19.625 40.652344 -19.355469 38.578125 -19.019531 C 40.386719 -24.714844 42.058594 -30.609375 44.605469 -36.097656 Z M 17.480469 -11.320312 C 15.605469 -12.792969 13.261719 -14.398438 11.050781 -15.203125 C 14.464844 -15.472656 18.148438 -15.671875 21.566406 -16.140625 C 20.226562 -14.601562 18.886719 -12.859375 17.546875 -11.320312 Z M 35.230469 -12.992188 C 33.753906 -7.703125 32.550781 -2.007812 32.484375 3.550781 C 32.484375 4.085938 32.484375 4.6875 32.550781 5.292969 C 28.464844 -0.46875 24.109375 -6.027344 18.617188 -10.582031 C 20.292969 -12.457031 21.765625 -14.464844 23.441406 -16.410156 C 27.863281 -16.878906 32.28125 -17.347656 36.703125 -18.015625 C 36.167969 -16.34375 35.699219 -14.667969 35.230469 -12.992188 Z M 36.96875 -18.820312 C 32.683594 -18.21875 28.464844 -17.75 24.179688 -17.347656 C 30.675781 -24.980469 36.835938 -33.019531 43.667969 -40.183594 C 44.472656 -41.121094 45.476562 -41.992188 46.414062 -42.796875 C 44.070312 -38.445312 42.128906 -33.554688 40.320312 -28.800781 C 39.113281 -25.515625 37.976562 -22.167969 36.902344 -18.820312 Z M 36.96875 -18.820312 "/></g></g></g><g fill="rgb(11.759949%, 11.759949%, 11.759949%)" fill-opacity="1"><g transform="translate(70.303195, 192.599944)"><g><path d="M 19.824219 -6.230469 C 16.675781 -4.753906 13.460938 -2.878906 9.914062 -2.746094 C 9.445312 -2.746094 9.042969 -2.679688 8.371094 -2.945312 C 7.769531 -3.214844 7.433594 -4.753906 6.429688 -5.492188 C 6.09375 -5.761719 5.761719 -5.894531 5.425781 -5.894531 C 3.617188 -5.894531 1.136719 -1.808594 -0.132812 -0.535156 C -0.535156 -2.078125 0.601562 -4.957031 1.070312 -5.960938 C 1.070312 -6.5625 0.46875 -6.5625 0.199219 -6.429688 C -0.601562 -6.027344 -2.007812 0.0664062 -0.0664062 0.0664062 C 2.34375 0.0664062 3.816406 -4.421875 5.558594 -4.21875 C 6.699219 -4.152344 6.964844 -2.210938 8.976562 -2.210938 C 12.523438 -2.210938 16.609375 -4.085938 19.957031 -5.558594 C 20.964844 -6.027344 20.894531 -6.628906 19.824219 -6.230469 Z M 19.824219 -6.230469 "/></g></g></g><g fill="rgb(11.759949%, 11.759949%, 11.759949%)" fill-opacity="1"><g transform="translate(90.127084, 192.599944)"><g><path d="M 10.515625 -6.230469 C 10.179688 -6.09375 9.175781 -5.492188 8.640625 -5.222656 C 6.5625 -4.21875 4.152344 -3.214844 2.144531 -3.214844 C 1.003906 -3.214844 0.535156 -3.75 0.535156 -4.488281 C 0.535156 -4.820312 0.667969 -5.292969 0.871094 -5.691406 C 1.207031 -5.425781 1.605469 -5.292969 2.007812 -5.292969 C 2.410156 -5.292969 3.015625 -5.492188 3.015625 -6.09375 C 3.015625 -6.765625 2.078125 -7.03125 1.605469 -7.03125 C 0.46875 -6.964844 -0.738281 -5.761719 -0.738281 -4.621094 C -0.738281 -3.214844 0.804688 -2.410156 1.941406 -2.410156 C 4.957031 -2.410156 8.839844 -4.285156 10.984375 -5.492188 C 11.183594 -5.558594 11.453125 -5.960938 11.320312 -6.230469 C 11.183594 -6.429688 10.714844 -6.296875 10.515625 -6.230469 Z M 2.007812 -6.496094 C 2.210938 -6.496094 2.476562 -6.296875 2.476562 -6.160156 C 2.476562 -6.027344 2.277344 -5.960938 2.144531 -5.960938 C 1.941406 -5.960938 1.605469 -6.09375 1.40625 -6.296875 C 1.675781 -6.429688 1.808594 -6.496094 2.007812 -6.496094 Z M 2.007812 -6.496094 "/></g></g></g><g fill="rgb(11.759949%, 11.759949%, 11.759949%)" fill-opacity="1"><g transform="translate(100.641789, 192.599944)"><g><path d="M 38.308594 -22.636719 C 34.292969 -22.839844 30.207031 -22.90625 26.1875 -22.90625 C 20.628906 -22.90625 15.402344 -22.839844 9.84375 -22.570312 C 11.25 -24.847656 14.332031 -29.738281 15.671875 -31.546875 C 15.738281 -31.679688 15.605469 -31.8125 15.335938 -31.8125 C 13.996094 -31.277344 10.648438 -25.71875 8.574219 -22.570312 C 4.554688 -22.371094 -6.296875 -22.167969 -6.296875 -20.695312 C -6.296875 -20.5625 -6.230469 -20.496094 -6.09375 -20.496094 C -5.828125 -20.496094 -5.359375 -20.828125 -5.222656 -20.828125 C -1.273438 -21.699219 3.484375 -21.765625 8.105469 -21.699219 C 4.285156 -15.402344 -1.070312 -7.367188 -1.070312 -0.132812 C -1.070312 3.28125 0.738281 6.027344 4.421875 6.027344 C 11.183594 6.027344 20.695312 -0.738281 27.527344 -5.558594 C 27.660156 -5.691406 27.792969 -5.828125 27.792969 -6.027344 C 27.792969 -6.296875 27.726562 -6.363281 27.460938 -6.363281 C 27.324219 -6.363281 27.257812 -6.296875 27.125 -6.230469 C 20.5625 -1.40625 11.386719 5.292969 4.890625 5.292969 C -5.625 5.292969 4.152344 -13.394531 9.375 -21.832031 C 17.480469 -22.035156 24.914062 -22.4375 33.019531 -22.4375 C 34.828125 -22.4375 42.394531 -22.371094 42.929688 -21.296875 C 43.265625 -20.628906 44.070312 -21.097656 44.070312 -21.433594 C 44.070312 -22.4375 38.980469 -22.570312 38.308594 -22.636719 Z M 38.308594 -22.636719 "/></g></g></g><g fill="rgb(11.759949%, 11.759949%, 11.759949%)" fill-opacity="1"><g transform="translate(127.832663, 192.599944)"><g><path d="M 38.308594 -22.636719 C 34.292969 -22.839844 30.207031 -22.90625 26.1875 -22.90625 C 20.628906 -22.90625 15.402344 -22.839844 9.84375 -22.570312 C 11.25 -24.847656 14.332031 -29.738281 15.671875 -31.546875 C 15.738281 -31.679688 15.605469 -31.8125 15.335938 -31.8125 C 13.996094 -31.277344 10.648438 -25.71875 8.574219 -22.570312 C 4.554688 -22.371094 -6.296875 -22.167969 -6.296875 -20.695312 C -6.296875 -20.5625 -6.230469 -20.496094 -6.09375 -20.496094 C -5.828125 -20.496094 -5.359375 -20.828125 -5.222656 -20.828125 C -1.273438 -21.699219 3.484375 -21.765625 8.105469 -21.699219 C 4.285156 -15.402344 -1.070312 -7.367188 -1.070312 -0.132812 C -1.070312 3.28125 0.738281 6.027344 4.421875 6.027344 C 11.183594 6.027344 20.695312 -0.738281 27.527344 -5.558594 C 27.660156 -5.691406 27.792969 -5.828125 27.792969 -6.027344 C 27.792969 -6.296875 27.726562 -6.363281 27.460938 -6.363281 C 27.324219 -6.363281 27.257812 -6.296875 27.125 -6.230469 C 20.5625 -1.40625 11.386719 5.292969 4.890625 5.292969 C -5.625 5.292969 4.152344 -13.394531 9.375 -21.832031 C 17.480469 -22.035156 24.914062 -22.4375 33.019531 -22.4375 C 34.828125 -22.4375 42.394531 -22.371094 42.929688 -21.296875 C 43.265625 -20.628906 44.070312 -21.097656 44.070312 -21.433594 C 44.070312 -22.4375 38.980469 -22.570312 38.308594 -22.636719 Z M 38.308594 -22.636719 "/></g></g></g><g fill="rgb(11.759949%, 11.759949%, 11.759949%)" fill-opacity="1"><g transform="translate(155.023537, 192.599944)"><g><path d="M 10.515625 -6.230469 C 10.179688 -6.09375 9.175781 -5.492188 8.640625 -5.222656 C 6.5625 -4.21875 4.152344 -3.214844 2.144531 -3.214844 C 1.003906 -3.214844 0.535156 -3.75 0.535156 -4.488281 C 0.535156 -4.820312 0.667969 -5.292969 0.871094 -5.691406 C 1.207031 -5.425781 1.605469 -5.292969 2.007812 -5.292969 C 2.410156 -5.292969 3.015625 -5.492188 3.015625 -6.09375 C 3.015625 -6.765625 2.078125 -7.03125 1.605469 -7.03125 C 0.46875 -6.964844 -0.738281 -5.761719 -0.738281 -4.621094 C -0.738281 -3.214844 0.804688 -2.410156 1.941406 -2.410156 C 4.957031 -2.410156 8.839844 -4.285156 10.984375 -5.492188 C 11.183594 -5.558594 11.453125 -5.960938 11.320312 -6.230469 C 11.183594 -6.429688 10.714844 -6.296875 10.515625 -6.230469 Z M 2.007812 -6.496094 C 2.210938 -6.496094 2.476562 -6.296875 2.476562 -6.160156 C 2.476562 -6.027344 2.277344 -5.960938 2.144531 -5.960938 C 1.941406 -5.960938 1.605469 -6.09375 1.40625 -6.296875 C 1.675781 -6.429688 1.808594 -6.496094 2.007812 -6.496094 Z M 2.007812 -6.496094 "/></g></g></g><g fill="rgb(11.759949%, 11.759949%, 11.759949%)" fill-opacity="1"><g transform="translate(165.538242, 192.599944)"><g/></g></g><g fill="rgb(11.759949%, 11.759949%, 11.759949%)" fill-opacity="1"><g transform="translate(178.79882, 192.599944)"><g><path d="M 50.765625 -34.558594 C 49.09375 -41.054688 40.722656 -45.140625 33.019531 -45.140625 C 21.96875 -45.140625 7.703125 -39.515625 2.8125 -30.675781 C 2.007812 -29.199219 1.472656 -27.59375 1.472656 -25.851562 C 1.472656 -19.019531 9.042969 -16.675781 13.328125 -9.242188 C 11.652344 -9.242188 10.046875 -9.308594 8.4375 -9.445312 C 8.238281 -9.445312 8.035156 -9.242188 8.035156 -9.042969 C 8.035156 -8.503906 12.457031 -8.4375 13.730469 -8.4375 C 15.402344 -5.089844 16.074219 -1.339844 16.074219 2.476562 C 16.074219 4.085938 15.875 5.691406 15.738281 7.300781 L 15.472656 9.777344 L 15.472656 10.113281 C 15.472656 10.246094 15.605469 10.648438 16.410156 10.648438 C 16.675781 10.648438 16.742188 10.582031 16.742188 10.515625 C 16.742188 10.449219 16.675781 10.382812 16.675781 10.382812 C 16.742188 10.449219 16.8125 10.3125 16.8125 10.3125 L 17.210938 8.371094 L 20.425781 -8.773438 L 20.761719 -8.773438 C 31.746094 -10.179688 45.742188 -15.539062 50.230469 -26.1875 C 51.167969 -28.53125 51.4375 -30.742188 50.765625 -34.558594 Z M 15.539062 9.84375 L 15.539062 9.914062 C 15.539062 9.84375 15.472656 9.914062 15.605469 9.777344 Z M 17.882812 -4.421875 C 17.546875 -2.476562 17.210938 -0.535156 16.945312 1.40625 C 16.8125 -1.875 16.007812 -5.425781 14.535156 -8.304688 C 15.875 -8.304688 17.28125 -8.304688 18.617188 -8.4375 C 18.351562 -7.03125 18.148438 -5.691406 17.882812 -4.421875 Z M 32.75 -12.792969 C 28.867188 -11.183594 24.714844 -10.113281 20.5625 -9.511719 C 21.164062 -13.929688 22.234375 -18.285156 23.242188 -22.636719 C 24.042969 -26.1875 24.847656 -30.070312 26.523438 -33.019531 C 26.722656 -33.421875 27.125 -33.6875 27.125 -34.089844 C 27.125 -34.425781 26.789062 -34.691406 26.523438 -34.691406 C 24.714844 -34.691406 22.570312 -26.925781 21.566406 -22.972656 C 20.425781 -18.417969 19.421875 -13.796875 18.6875 -9.175781 C 17.144531 -9.042969 15.539062 -8.90625 13.996094 -8.90625 C 11.652344 -12.992188 8.371094 -15.402344 4.957031 -18.820312 C 3.214844 -20.5625 1.875 -22.703125 1.875 -25.382812 C 1.875 -32.617188 10.582031 -37.707031 15.136719 -39.851562 C 20.425781 -42.328125 26.523438 -43.867188 32.414062 -43.867188 C 39.515625 -43.867188 46.480469 -41.457031 49.160156 -33.824219 C 52.710938 -23.84375 40.386719 -15.875 32.75 -12.792969 Z M 32.75 -12.792969 "/></g></g></g><g fill="rgb(11.759949%, 11.759949%, 11.759949%)" fill-opacity="1"><g transform="translate(226.617279, 192.599944)"><g><path d="M 10.515625 -6.230469 C 10.179688 -6.09375 9.175781 -5.492188 8.640625 -5.222656 C 6.5625 -4.21875 4.152344 -3.214844 2.144531 -3.214844 C 1.003906 -3.214844 0.535156 -3.75 0.535156 -4.488281 C 0.535156 -4.820312 0.667969 -5.292969 0.871094 -5.691406 C 1.207031 -5.425781 1.605469 -5.292969 2.007812 -5.292969 C 2.410156 -5.292969 3.015625 -5.492188 3.015625 -6.09375 C 3.015625 -6.765625 2.078125 -7.03125 1.605469 -7.03125 C 0.46875 -6.964844 -0.738281 -5.761719 -0.738281 -4.621094 C -0.738281 -3.214844 0.804688 -2.410156 1.941406 -2.410156 C 4.957031 -2.410156 8.839844 -4.285156 10.984375 -5.492188 C 11.183594 -5.558594 11.453125 -5.960938 11.320312 -6.230469 C 11.183594 -6.429688 10.714844 -6.296875 10.515625 -6.230469 Z M 2.007812 -6.496094 C 2.210938 -6.496094 2.476562 -6.296875 2.476562 -6.160156 C 2.476562 -6.027344 2.277344 -5.960938 2.144531 -5.960938 C 1.941406 -5.960938 1.605469 -6.09375 1.40625 -6.296875 C 1.675781 -6.429688 1.808594 -6.496094 2.007812 -6.496094 Z M 2.007812 -6.496094 "/></g></g></g><g fill="rgb(11.759949%, 11.759949%, 11.759949%)" fill-opacity="1"><g transform="translate(237.131972, 192.599944)"><g><path d="M 17.210938 -6.09375 C 17.144531 -6.230469 17.011719 -6.296875 16.878906 -6.296875 C 16.878906 -6.296875 16.8125 -6.230469 16.742188 -6.230469 C 15.003906 -5.492188 13.058594 -5.089844 11.117188 -5.089844 C 9.242188 -5.089844 7.367188 -5.492188 5.625 -6.160156 C 7.769531 -10.449219 8.707031 -15.402344 8.707031 -20.09375 C 8.707031 -24.648438 7.636719 -31.007812 1.808594 -31.007812 C -2.210938 -31.007812 -7.433594 -29.335938 -7.433594 -22.703125 C -7.433594 -15.070312 -1.207031 -8.707031 4.152344 -6.230469 C 3.28125 -4.351562 1.875 -1.472656 -0.269531 -1.472656 C -0.9375 -1.472656 -1.070312 -2.144531 -1.070312 -2.746094 C -1.070312 -4.21875 0 -5.425781 1.539062 -5.425781 C 1.675781 -5.425781 1.808594 -5.425781 2.007812 -5.425781 C 2.277344 -5.425781 2.476562 -5.625 2.476562 -5.894531 C 2.476562 -6.429688 1.808594 -6.496094 1.273438 -6.496094 C -0.601562 -6.496094 -2.007812 -4.820312 -2.007812 -3.082031 C -2.007812 -2.144531 -1.675781 -0.871094 -0.199219 -0.871094 C 2.277344 -0.871094 4.285156 -3.617188 5.425781 -5.691406 C 7.234375 -4.957031 9.242188 -4.621094 11.117188 -4.621094 C 12.390625 -4.621094 17.210938 -5.023438 17.210938 -5.894531 C 17.210938 -5.960938 17.210938 -5.960938 17.210938 -6.027344 Z M 4.890625 -7.703125 C 4.753906 -7.300781 4.554688 -6.964844 4.421875 -6.628906 C -1.742188 -9.578125 -5.960938 -16.8125 -5.960938 -23.039062 C -5.960938 -27.527344 -2.945312 -30.003906 1.742188 -30.339844 C 5.828125 -30.339844 7.902344 -26.722656 7.902344 -21.230469 C 7.902344 -16.609375 6.699219 -11.789062 4.890625 -7.703125 Z M 4.890625 -7.703125 "/></g></g></g><g fill="rgb(11.759949%, 11.759949%, 11.759949%)" fill-opacity="1"><g transform="translate(253.875136, 192.599944)"><g><path d="M 10.515625 -6.230469 C 10.179688 -6.09375 9.175781 -5.492188 8.640625 -5.222656 C 6.5625 -4.21875 4.152344 -3.214844 2.144531 -3.214844 C 1.003906 -3.214844 0.535156 -3.75 0.535156 -4.488281 C 0.535156 -4.820312 0.667969 -5.292969 0.871094 -5.691406 C 1.207031 -5.425781 1.605469 -5.292969 2.007812 -5.292969 C 2.410156 -5.292969 3.015625 -5.492188 3.015625 -6.09375 C 3.015625 -6.765625 2.078125 -7.03125 1.605469 -7.03125 C 0.46875 -6.964844 -0.738281 -5.761719 -0.738281 -4.621094 C -0.738281 -3.214844 0.804688 -2.410156 1.941406 -2.410156 C 4.957031 -2.410156 8.839844 -4.285156 10.984375 -5.492188 C 11.183594 -5.558594 11.453125 -5.960938 11.320312 -6.230469 C 11.183594 -6.429688 10.714844 -6.296875 10.515625 -6.230469 Z M 2.007812 -6.496094 C 2.210938 -6.496094 2.476562 -6.296875 2.476562 -6.160156 C 2.476562 -6.027344 2.277344 -5.960938 2.144531 -5.960938 C 1.941406 -5.960938 1.605469 -6.09375 1.40625 -6.296875 C 1.675781 -6.429688 1.808594 -6.496094 2.007812 -6.496094 Z M 2.007812 -6.496094 "/></g></g></g><g fill="rgb(11.759949%, 11.759949%, 11.759949%)" fill-opacity="1"><g transform="translate(264.389829, 192.599944)"><g><path d="M 22.703125 -6.230469 C 16.8125 -0.335938 8.4375 9.644531 3.015625 9.644531 C 1.742188 9.644531 1.070312 8.90625 1.070312 7.703125 C 1.070312 4.621094 3.082031 1.273438 3.082031 -2.210938 C 3.082031 -3.75 2.410156 -4.554688 1.003906 -6.230469 C 1.472656 -6.5625 2.007812 -6.964844 2.007812 -7.703125 C 2.007812 -8.304688 1.273438 -8.503906 0.9375 -8.503906 C 0.199219 -8.503906 -0.269531 -7.835938 -0.269531 -7.167969 C -0.269531 -5.691406 1.605469 -4.351562 1.605469 -3.148438 C 1.605469 -0.535156 -0.199219 2.679688 -0.199219 6.027344 C -0.199219 7.636719 0.132812 10.382812 3.015625 10.382812 C 5.558594 10.382812 8.035156 8.4375 9.777344 7.167969 C 14.132812 4.085938 17.816406 0.0664062 21.363281 -3.75 L 23.308594 -5.828125 C 23.375 -5.894531 23.375 -5.960938 23.375 -6.027344 C 23.375 -6.230469 23.242188 -6.363281 23.039062 -6.363281 C 22.90625 -6.363281 22.839844 -6.363281 22.703125 -6.230469 Z M 0.402344 -6.832031 C 0.335938 -6.898438 0.269531 -7.097656 0.269531 -7.234375 C 0.269531 -7.703125 0.601562 -7.96875 0.9375 -7.96875 C 1.136719 -7.96875 1.472656 -7.902344 1.472656 -7.703125 C 1.472656 -7.367188 0.804688 -6.964844 0.402344 -6.832031 Z M 0.402344 -6.832031 "/></g></g></g><g fill="rgb(11.759949%, 11.759949%, 11.759949%)" fill-opacity="1"><g transform="translate(287.093532, 192.599944)"><g><path d="M 20.496094 -6.230469 C 14.601562 -2.546875 8.976562 -0.335938 2.144531 2.613281 C 2.144531 0.269531 0.738281 -2.007812 0.738281 -4.285156 C 0.738281 -7.5 3.816406 -11.789062 7.167969 -11.789062 C 7.703125 -11.789062 8.105469 -11.117188 8.4375 -11.117188 C 8.574219 -11.117188 8.640625 -11.183594 8.640625 -11.25 C 8.640625 -12.324219 7.566406 -12.726562 6.898438 -12.726562 C 5.359375 -12.726562 3.28125 -11.386719 2.476562 -10.648438 C 1.003906 -9.242188 -0.132812 -7.167969 -0.132812 -5.089844 C -0.132812 -2.746094 1.339844 -0.667969 1.339844 1.742188 C 1.339844 2.210938 1.472656 2.476562 0.9375 2.746094 C -0.269531 3.347656 -2.210938 4.152344 -2.210938 5.558594 C -2.210938 6.5625 -1.339844 7.300781 -0.804688 7.300781 C 0.535156 7.300781 1.808594 5.023438 2.078125 3.347656 C 3.214844 2.8125 4.421875 2.277344 5.625 1.808594 C 11.117188 -0.402344 15.335938 -2.746094 20.5625 -5.625 C 21.097656 -6.027344 21.03125 -6.5625 20.496094 -6.230469 Z M -1.207031 6.429688 C -1.339844 6.429688 -1.339844 6.363281 -1.40625 6.230469 C -2.007812 4.957031 -0.269531 3.953125 1.273438 3.347656 C 0.9375 4.152344 -0.269531 6.429688 -1.207031 6.429688 Z M -1.207031 6.429688 "/></g></g></g><g fill="rgb(11.759949%, 11.759949%, 11.759949%)" fill-opacity="1"><g transform="translate(307.587153, 192.599944)"><g><path d="M 10.515625 -6.230469 C 10.179688 -6.09375 9.175781 -5.492188 8.640625 -5.222656 C 6.5625 -4.21875 4.152344 -3.214844 2.144531 -3.214844 C 1.003906 -3.214844 0.535156 -3.75 0.535156 -4.488281 C 0.535156 -4.820312 0.667969 -5.292969 0.871094 -5.691406 C 1.207031 -5.425781 1.605469 -5.292969 2.007812 -5.292969 C 2.410156 -5.292969 3.015625 -5.492188 3.015625 -6.09375 C 3.015625 -6.765625 2.078125 -7.03125 1.605469 -7.03125 C 0.46875 -6.964844 -0.738281 -5.761719 -0.738281 -4.621094 C -0.738281 -3.214844 0.804688 -2.410156 1.941406 -2.410156 C 4.957031 -2.410156 8.839844 -4.285156 10.984375 -5.492188 C 11.183594 -5.558594 11.453125 -5.960938 11.320312 -6.230469 C 11.183594 -6.429688 10.714844 -6.296875 10.515625 -6.230469 Z M 2.007812 -6.496094 C 2.210938 -6.496094 2.476562 -6.296875 2.476562 -6.160156 C 2.476562 -6.027344 2.277344 -5.960938 2.144531 -5.960938 C 1.941406 -5.960938 1.605469 -6.09375 1.40625 -6.296875 C 1.675781 -6.429688 1.808594 -6.496094 2.007812 -6.496094 Z M 2.007812 -6.496094 "/></g></g></g><g fill="rgb(11.759949%, 11.759949%, 11.759949%)" fill-opacity="1"><g transform="translate(318.101846, 192.599944)"><g><path d="M 19.824219 -6.230469 C 16.675781 -4.753906 13.460938 -2.878906 9.914062 -2.746094 C 9.445312 -2.746094 9.042969 -2.679688 8.371094 -2.945312 C 7.769531 -3.214844 7.433594 -4.753906 6.429688 -5.492188 C 6.09375 -5.761719 5.761719 -5.894531 5.425781 -5.894531 C 3.617188 -5.894531 1.136719 -1.808594 -0.132812 -0.535156 C -0.535156 -2.078125 0.601562 -4.957031 1.070312 -5.960938 C 1.070312 -6.5625 0.46875 -6.5625 0.199219 -6.429688 C -0.601562 -6.027344 -2.007812 0.0664062 -0.0664062 0.0664062 C 2.34375 0.0664062 3.816406 -4.421875 5.558594 -4.21875 C 6.699219 -4.152344 6.964844 -2.210938 8.976562 -2.210938 C 12.523438 -2.210938 16.609375 -4.085938 19.957031 -5.558594 C 20.964844 -6.027344 20.894531 -6.628906 19.824219 -6.230469 Z M 19.824219 -6.230469 "/></g></g></g><g fill="rgb(11.759949%, 11.759949%, 11.759949%)" fill-opacity="1"><g transform="translate(337.925735, 192.599944)"><g><path d="M 4.019531 -1.472656 C 3.082031 -1.472656 2.8125 -0.0664062 3.28125 0.535156 C 4.488281 1.339844 5.222656 0.335938 5.359375 0.0664062 C 5.761719 -0.804688 4.820312 -1.539062 4.019531 -1.472656 Z M 4.019531 -1.472656 "/></g></g></g></svg>